<svg width="21" height="21" viewBox="0 0 21 21" fill="none" xmlns="http://www.w3.org/2000/svg">
<g clip-path="url(#clip0_393_464)">
<path d="M10.7782 2.18994C13.4501 2.18994 13.7665 2.20166 14.8173 2.24854C15.7938 2.2915 16.3212 2.45557 16.6727 2.59229C17.1376 2.77197 17.4735 2.99072 17.8212 3.33838C18.1727 3.68994 18.3876 4.02197 18.5673 4.48682C18.704 4.83838 18.868 5.36963 18.911 6.34229C18.9579 7.39697 18.9696 7.71338 18.9696 10.3813C18.9696 13.0532 18.9579 13.3696 18.911 14.4204C18.868 15.397 18.704 15.9243 18.5673 16.2759C18.3876 16.7407 18.1688 17.0767 17.8212 17.4243C17.4696 17.7759 17.1376 17.9907 16.6727 18.1704C16.3212 18.3071 15.7899 18.4712 14.8173 18.5142C13.7626 18.561 13.4462 18.5728 10.7782 18.5728C8.10632 18.5728 7.78992 18.561 6.73914 18.5142C5.76257 18.4712 5.23523 18.3071 4.88367 18.1704C4.41882 17.9907 4.08289 17.772 3.73523 17.4243C3.38367 17.0728 3.16882 16.7407 2.98914 16.2759C2.85242 15.9243 2.68835 15.3931 2.64539 14.4204C2.59851 13.3657 2.58679 13.0493 2.58679 10.3813C2.58679 7.70947 2.59851 7.39307 2.64539 6.34229C2.68835 5.36572 2.85242 4.83838 2.98914 4.48682C3.16882 4.02197 3.38757 3.68604 3.73523 3.33838C4.08679 2.98682 4.41882 2.77197 4.88367 2.59229C5.23523 2.45557 5.76648 2.2915 6.73914 2.24854C7.78992 2.20166 8.10632 2.18994 10.7782 2.18994ZM10.7782 0.38916C8.06336 0.38916 7.72351 0.400879 6.6571 0.447754C5.5946 0.494629 4.86414 0.666504 4.23132 0.912598C3.57117 1.17041 3.01257 1.51025 2.45789 2.06885C1.89929 2.62354 1.55945 3.18213 1.30164 3.83838C1.05554 4.4751 0.883667 5.20166 0.836792 6.26416C0.789917 7.33447 0.778198 7.67432 0.778198 10.3892C0.778198 13.104 0.789917 13.4438 0.836792 14.5103C0.883667 15.5728 1.05554 16.3032 1.30164 16.936C1.55945 17.5962 1.89929 18.1548 2.45789 18.7095C3.01257 19.2642 3.57117 19.6079 4.22742 19.8618C4.86414 20.1079 5.5907 20.2798 6.6532 20.3267C7.7196 20.3735 8.05945 20.3853 10.7743 20.3853C13.4891 20.3853 13.829 20.3735 14.8954 20.3267C15.9579 20.2798 16.6884 20.1079 17.3212 19.8618C17.9774 19.6079 18.536 19.2642 19.0907 18.7095C19.6454 18.1548 19.9891 17.5962 20.243 16.9399C20.4891 16.3032 20.661 15.5767 20.7079 14.5142C20.7548 13.4478 20.7665 13.1079 20.7665 10.3931C20.7665 7.67822 20.7548 7.33838 20.7079 6.27197C20.661 5.20947 20.4891 4.479 20.243 3.84619C19.997 3.18213 19.6571 2.62354 19.0985 2.06885C18.5438 1.51416 17.9852 1.17041 17.329 0.916504C16.6923 0.67041 15.9657 0.498535 14.9032 0.45166C13.8329 0.400879 13.493 0.38916 10.7782 0.38916Z" fill="white"/>
<path d="M10.7782 5.25244C7.94226 5.25244 5.64148 7.55322 5.64148 10.3892C5.64148 13.2251 7.94226 15.5259 10.7782 15.5259C13.6141 15.5259 15.9149 13.2251 15.9149 10.3892C15.9149 7.55322 13.6141 5.25244 10.7782 5.25244ZM10.7782 13.7212C8.93835 13.7212 7.44617 12.229 7.44617 10.3892C7.44617 8.54932 8.93835 7.05713 10.7782 7.05713C12.618 7.05713 14.1102 8.54932 14.1102 10.3892C14.1102 12.229 12.618 13.7212 10.7782 13.7212Z" fill="white"/>
<path d="M17.3173 5.04932C17.3173 5.71338 16.7782 6.24854 16.118 6.24854C15.454 6.24854 14.9188 5.70947 14.9188 5.04932C14.9188 4.38525 15.4579 3.8501 16.118 3.8501C16.7782 3.8501 17.3173 4.38916 17.3173 5.04932Z" fill="white"/>
</g>
<defs>
<clipPath id="clip0_393_464">
<rect width="20" height="20" fill="white" transform="translate(0.778198 0.38916)"/>
</clipPath>
</defs>
</svg>
