<svg width="18" height="21" viewBox="0 0 18 21" fill="none" xmlns="http://www.w3.org/2000/svg">
<g clip-path="url(#clip0_571_2981)">
<path fill-rule="evenodd" clip-rule="evenodd" d="M14.9853 2.57107C11.5572 -0.857022 5.99916 -0.857022 2.57107 2.57107C-0.857024 5.99916 -0.857021 11.5572 2.57107 14.9853L8.07107 20.4853C8.2586 20.6728 8.51296 20.7782 8.77817 20.7782C9.04339 20.7782 9.29774 20.6728 9.48528 20.4853L14.9853 14.9853C18.4134 11.5572 18.4134 5.99916 14.9853 2.57107ZM5.27817 8.77817C5.27817 6.84518 6.84518 5.27817 8.77817 5.27817H8.78817C10.7212 5.27817 12.2882 6.84518 12.2882 8.77817V8.78817C12.2882 10.7212 10.7212 12.2882 8.78817 12.2882H8.77817C6.84518 12.2882 5.27817 10.7212 5.27817 8.78817V8.77817Z" fill="white"/>
</g>
<defs>
<clipPath id="clip0_571_2981">
<rect width="17.5563" height="20.7782" fill="white"/>
</clipPath>
</defs>
</svg>
