<svg width="21" height="21" viewBox="0 0 21 21" fill="none" xmlns="http://www.w3.org/2000/svg">
<g clip-path="url(#clip0_571_2443)">
<g clip-path="url(#clip1_571_2443)">
<path d="M19.3717 0.38916H2.32874C1.51233 0.38916 0.852173 1.03369 0.852173 1.83057V18.9438C0.852173 19.7407 1.51233 20.3892 2.32874 20.3892H19.3717C20.1881 20.3892 20.8522 19.7407 20.8522 18.9478V1.83057C20.8522 1.03369 20.1881 0.38916 19.3717 0.38916ZM6.78577 17.4321H3.81702V7.88525H6.78577V17.4321ZM5.30139 6.58447C4.34827 6.58447 3.57874 5.81494 3.57874 4.86572C3.57874 3.9165 4.34827 3.14697 5.30139 3.14697C6.25061 3.14697 7.02014 3.9165 7.02014 4.86572C7.02014 5.81103 6.25061 6.58447 5.30139 6.58447ZM17.8951 17.4321H14.9303V12.7915C14.9303 11.686 14.9108 10.2603 13.3873 10.2603C11.8444 10.2603 11.61 11.4673 11.61 12.7134V17.4321H8.64905V7.88525H11.4928V9.18994H11.5319C11.9264 8.43994 12.8951 7.64697 14.3365 7.64697C17.3405 7.64697 17.8951 9.62354 17.8951 12.1938V17.4321V17.4321Z" fill="white"/>
</g>
</g>
<defs>
<clipPath id="clip0_571_2443">
<rect width="20" height="20" fill="white" transform="translate(0.852173 0.38916)"/>
</clipPath>
<clipPath id="clip1_571_2443">
<rect width="20" height="20" fill="white" transform="translate(0.852173 0.38916)"/>
</clipPath>
</defs>
</svg>
