<svg width="20" height="17" viewBox="0 0 20 17" fill="none" xmlns="http://www.w3.org/2000/svg">
<g clip-path="url(#clip0_571_2441)">
<path fill-rule="evenodd" clip-rule="evenodd" d="M0.234468 0.745727C0.0881487 0.919631 0 1.1441 0 1.38916V13.3892C0 15.046 1.34315 16.3892 3 16.3892H17C18.6569 16.3892 20 15.046 20 13.3892V1.39972C20.0004 1.36277 19.9987 1.3257 19.995 1.2887C19.9681 1.01918 19.8342 0.781166 19.6364 0.617777C19.4645 0.47575 19.2442 0.390109 19.004 0.389168C19.0027 0.389163 19.0014 0.38916 19 0.38916C19 0.38916 19 0.38916 19 0.38916H1.00003H1C0.734354 0.38916 0.4929 0.492742 0.313825 0.66172C0.285857 0.68809 0.25935 0.716129 0.234468 0.745727ZM2 3.80334V13.3892C2 13.9414 2.44772 14.3892 3 14.3892H17C17.5523 14.3892 18 13.9414 18 13.3892V3.8034L10.7071 11.0963C10.3166 11.4868 9.68345 11.4868 9.29292 11.0963L2 3.80334Z" fill="white"/>
</g>
<defs>
<clipPath id="clip0_571_2441">
<rect width="20.0001" height="16" fill="white" transform="translate(0 0.38916)"/>
</clipPath>
</defs>
</svg>
