<svg width="18" height="21" viewBox="0 0 18 21" fill="none" xmlns="http://www.w3.org/2000/svg">
<g clip-path="url(#clip0_571_2442)">
<path fill-rule="evenodd" clip-rule="evenodd" d="M15.1332 2.57107C11.7051 -0.857022 6.1471 -0.857022 2.71902 2.57107C-0.709075 5.99916 -0.709072 11.5572 2.71902 14.9853L8.21902 20.4853C8.40655 20.6728 8.6609 20.7782 8.92612 20.7782C9.19134 20.7782 9.44569 20.6728 9.63323 20.4853L15.1332 14.9853C18.5613 11.5572 18.5613 5.99916 15.1332 2.57107ZM5.42612 8.77817C5.42612 6.84518 6.99312 5.27817 8.92612 5.27817H8.93612C10.8691 5.27817 12.4361 6.84518 12.4361 8.77817V8.78817C12.4361 10.7212 10.8691 12.2882 8.93612 12.2882H8.92612C6.99312 12.2882 5.42612 10.7212 5.42612 8.78817V8.77817Z" fill="white"/>
</g>
<defs>
<clipPath id="clip0_571_2442">
<rect width="17.5563" height="20.7782" fill="white" transform="translate(0.147949)"/>
</clipPath>
</defs>
</svg>
